# Low-poly neutral face placeholder for the Week 1 viewer.
# Replace this file with a converted Basel Face Model mesh when available.

v -0.35 1.20 0.00
v -0.18 1.20 0.04
v 0.00 1.20 0.06
v 0.18 1.20 0.04
v 0.35 1.20 0.00
v -0.65 0.65 0.04
v -0.32 0.65 0.14
v 0.00 0.65 0.22
v 0.32 0.65 0.14
v 0.65 0.65 0.04
v -0.75 0.10 0.02
v -0.36 0.10 0.08
v 0.00 0.10 0.62
v 0.36 0.10 0.08
v 0.75 0.10 0.02
v -0.58 -0.45 0.00
v -0.28 -0.45 0.05
v 0.00 -0.45 0.20
v 0.28 -0.45 0.05
v 0.58 -0.45 0.00
v -0.22 -1.05 -0.04
v -0.11 -1.05 0.00
v 0.00 -1.05 0.02
v 0.11 -1.05 0.00
v 0.22 -1.05 -0.04

f 1 6 2
f 2 6 7
f 2 7 3
f 3 7 8
f 3 8 4
f 4 8 9
f 4 9 5
f 5 9 10
f 6 11 7
f 7 11 12
f 7 12 8
f 8 12 13
f 8 13 9
f 9 13 14
f 9 14 10
f 10 14 15
f 11 16 12
f 12 16 17
f 12 17 13
f 13 17 18
f 13 18 14
f 14 18 19
f 14 19 15
f 15 19 20
f 16 21 17
f 17 21 22
f 17 22 18
f 18 22 23
f 18 23 19
f 19 23 24
f 19 24 20
f 20 24 25
